# xmcd
#
# Track frame offsets:
#	150
#	50279
#	84599
#	123512
#	160955
#	206123
#	247550
#	291858
#
# Disc length: 4359 seconds
#
# Revision: 2
# Processed by: cddbd v1.5.2PL0 Copyright (c) Steve Scherf et al.
# Submitted via: audiograbber 1.83.01
#
DISCID=68110508
DTITLE=Steps Ahead - Steppin' Out [featuring Mike Mainieri and Bill Evans and Chuck
DTITLE=Loeb and Tom Kennedy and Steve Smith]
DYEAR=2016
DGENRE=Jazz
TTITLE0=Pools
TTITLE1=Steppish
TTITLE2=Blue Montreux
TTITLE3=Self Portrait
TTITLE4=Oops
TTITLE5=Beirut
TTITLE6=Sara's Touch
TTITLE7=Trains
EXTD=
EXTT0=
EXTT1=
EXTT2=
EXTT3=
EXTT4=
EXTT5=
EXTT6=
EXTT7=
PLAYORDER=
